<svg width="16" height="16" viewBox="0 0 36 36" fill="none" xmlns="http://www.w3.org/2000/svg">
<rect x="2.87228" y="29.0136" width="30" height="2" rx="1" transform="rotate(-2.28429 2.87228 29.0136)" fill="#C9C19F"/>
<rect x="2.50128" y="25.827" width="30" height="2" rx="1" transform="rotate(-5.31922 2.50128 25.827)" fill="#C9C19F"/>
<rect x="2.68671" y="27.8184" width="30" height="2" rx="1" transform="rotate(-5.31922 2.68671 27.8184)" fill="#C9C19F"/>
<rect x="2.13046" y="21.8443" width="30" height="2" rx="1" transform="rotate(-5.31922 2.13046 21.8443)" fill="#C9C19F"/>
<rect x="2.31589" y="23.8357" width="30" height="2" rx="1" transform="rotate(-5.31922 2.31589 23.8357)" fill="#C9C19F"/>
<rect x="3.18066" y="20.719" width="2" height="12" rx="1" transform="rotate(-3.88963 3.18066 20.719)" fill="#7D7C7A"/>
<rect x="5.02484" y="20.5705" width="2" height="12" rx="1" transform="rotate(-5.31922 5.02484 20.5705)" fill="#7D7C7A"/>
<rect x="7.36234" y="20.3045" width="2" height="12" rx="1" transform="rotate(-1.97144 7.36234 20.3045)" fill="#7D7C7A"/>
<rect x="9.00763" y="20.1996" width="2" height="12" rx="1" transform="rotate(-5.31922 9.00763 20.1996)" fill="#7D7C7A"/>
<rect x="11.2029" y="19.9642" width="2" height="12" rx="1" transform="rotate(-3.34147 11.2029 19.9642)" fill="#7D7C7A"/>
<rect x="12.9904" y="19.8288" width="2" height="12" rx="1" transform="rotate(-5.31922 12.9904 19.8288)" fill="#7D7C7A"/>
<rect x="15.3752" y="19.5535" width="2" height="12" rx="1" transform="rotate(-1.5168 15.3752 19.5535)" fill="#7D7C7A"/>
<rect x="16.9732" y="19.458" width="2" height="12.5938" rx="1" transform="rotate(-5.31922 16.9732 19.458)" fill="#7D7C7A"/>
<rect x="19.5079" y="19.157" width="2" height="12.2716" rx="1" transform="rotate(-0.197846 19.5079 19.157)" fill="#7D7C7A"/>
<rect x="20.9559" y="19.0872" width="2" height="12.5013" rx="1" transform="rotate(-5.31922 20.9559 19.0872)" fill="#7D7C7A"/>
<rect x="23.1907" y="18.8421" width="2" height="11.748" rx="1" transform="rotate(-2.90942 23.1907 18.8421)" fill="#7D7C7A"/>
<rect x="24.9387" y="18.7164" width="2" height="12.5701" rx="1" transform="rotate(-5.31922 24.9387 18.7164)" fill="#7D7C7A"/>
<rect x="27.1603" y="18.475" width="2" height="12" rx="1" transform="rotate(-3.08776 27.1603 18.475)" fill="#7D7C7A"/>
<rect x="28.9215" y="18.3456" width="2" height="12" rx="1" transform="rotate(-5.31922 28.9215 18.3456)" fill="#7D7C7A"/>
<rect x="5.11755" y="21.5662" width="2" height="2" transform="rotate(-5.31922 5.11755 21.5662)" fill="#C9C19F"/>
<rect x="9.10034" y="21.1953" width="2" height="2" transform="rotate(-5.31922 9.10034 21.1953)" fill="#C9C19F"/>
<rect x="13.0831" y="20.8245" width="2" height="2" transform="rotate(-5.31922 13.0831 20.8245)" fill="#C9C19F"/>
<rect x="17.0659" y="20.4537" width="2" height="2" transform="rotate(-5.31922 17.0659 20.4537)" fill="#C9C19F"/>
<rect x="21.0486" y="20.0829" width="2" height="2" transform="rotate(-5.31922 21.0486 20.0829)" fill="#C9C19F"/>
<rect x="25.0314" y="19.7121" width="2" height="2" transform="rotate(-5.31922 25.0314 19.7121)" fill="#C9C19F"/>
<rect x="29.0142" y="19.3413" width="2" height="2" transform="rotate(-5.31922 29.0142 19.3413)" fill="#C9C19F"/>
<rect x="5.11755" y="21.5662" width="2" height="2" transform="rotate(-5.31922 5.11755 21.5662)" fill="#C9C19F"/>
<rect x="9.10034" y="21.1953" width="2" height="2" transform="rotate(-5.31922 9.10034 21.1953)" fill="#C9C19F"/>
<rect x="13.0831" y="20.8245" width="2" height="2" transform="rotate(-5.31922 13.0831 20.8245)" fill="#C9C19F"/>
<rect x="17.0659" y="20.4537" width="2" height="2" transform="rotate(-5.31922 17.0659 20.4537)" fill="#C9C19F"/>
<rect x="21.0486" y="20.0829" width="2" height="2" transform="rotate(-5.31922 21.0486 20.0829)" fill="#C9C19F"/>
<rect x="25.0314" y="19.7121" width="2" height="2" transform="rotate(-5.31922 25.0314 19.7121)" fill="#C9C19F"/>
<rect x="29.0142" y="19.3413" width="2" height="2" transform="rotate(-5.31922 29.0142 19.3413)" fill="#C9C19F"/>
<rect x="3.31158" y="23.743" width="2" height="2" transform="rotate(-5.31922 3.31158 23.743)" fill="#C9C19F"/>
<rect x="7.29434" y="23.3721" width="2" height="2" transform="rotate(-5.31922 7.29434 23.3721)" fill="#C9C19F"/>
<rect x="11.2771" y="23.0013" width="2" height="2" transform="rotate(-5.31922 11.2771 23.0013)" fill="#C9C19F"/>
<rect x="15.2599" y="22.6305" width="2" height="2" transform="rotate(-5.31922 15.2599 22.6305)" fill="#C9C19F"/>
<rect x="19.2427" y="22.2597" width="2" height="2" transform="rotate(-5.31922 19.2427 22.2597)" fill="#C9C19F"/>
<rect x="23.2254" y="21.8889" width="2" height="2" transform="rotate(-5.31922 23.2254 21.8889)" fill="#C9C19F"/>
<rect x="27.2082" y="21.5181" width="2" height="2" transform="rotate(-5.31922 27.2082 21.5181)" fill="#C9C19F"/>
<rect x="5.48837" y="25.5489" width="2" height="2" transform="rotate(-5.31922 5.48837 25.5489)" fill="#C9C19F"/>
<rect x="9.47116" y="25.1781" width="2" height="2" transform="rotate(-5.31922 9.47116 25.1781)" fill="#C9C19F"/>
<rect x="13.4539" y="24.8073" width="2" height="2" transform="rotate(-5.31922 13.4539 24.8073)" fill="#C9C19F"/>
<rect x="17.4367" y="24.4365" width="2" height="2" transform="rotate(-5.31922 17.4367 24.4365)" fill="#C9C19F"/>
<rect x="21.4195" y="24.0657" width="2" height="2" transform="rotate(-5.31922 21.4195 24.0657)" fill="#C9C19F"/>
<rect x="25.4023" y="23.6948" width="2" height="2" transform="rotate(-5.31922 25.4023 23.6948)" fill="#C9C19F"/>
<rect x="29.385" y="23.324" width="2" height="2" transform="rotate(-5.31922 29.385 23.324)" fill="#C9C19F"/>
<rect x="3.6824" y="27.7257" width="2" height="2" transform="rotate(-5.31922 3.6824 27.7257)" fill="#C9C19F"/>
<rect x="7.66516" y="27.3549" width="2" height="2" transform="rotate(-5.31922 7.66516 27.3549)" fill="#C9C19F"/>
<rect x="11.6479" y="26.9841" width="2" height="2" transform="rotate(-5.31922 11.6479 26.9841)" fill="#C9C19F"/>
<rect x="15.6307" y="26.6133" width="2" height="2" transform="rotate(-5.31922 15.6307 26.6133)" fill="#C9C19F"/>
<rect x="19.6135" y="26.2425" width="2" height="2" transform="rotate(-5.31922 19.6135 26.2425)" fill="#C9C19F"/>
<rect x="23.5963" y="25.8716" width="2" height="2" transform="rotate(-5.31922 23.5963 25.8716)" fill="#C9C19F"/>
<rect x="27.579" y="25.5008" width="2" height="2" transform="rotate(-5.31922 27.579 25.5008)" fill="#C9C19F"/>
<rect x="5.85919" y="29.5317" width="2" height="2" transform="rotate(-5.31922 5.85919 29.5317)" fill="#C9C19F"/>
<rect x="9.84198" y="29.1609" width="2" height="2" transform="rotate(-5.31922 9.84198 29.1609)" fill="#C9C19F"/>
<rect x="13.8247" y="28.7901" width="2" height="2" transform="rotate(-5.31922 13.8247 28.7901)" fill="#C9C19F"/>
<rect x="17.8075" y="28.4193" width="2" height="2" transform="rotate(-5.31922 17.8075 28.4193)" fill="#C9C19F"/>
<rect x="21.7903" y="28.0484" width="2" height="2" transform="rotate(-5.31922 21.7903 28.0484)" fill="#C9C19F"/>
<rect x="25.7731" y="27.6776" width="2" height="2" transform="rotate(-5.31922 25.7731 27.6776)" fill="#C9C19F"/>
<rect x="29.7558" y="27.3068" width="2" height="2" transform="rotate(-5.31922 29.7558 27.3068)" fill="#C9C19F"/>
<rect x="4.03369" y="5.04637" width="2" height="17" rx="1" transform="rotate(-2 4.03369 5.04637)" fill="#7D7C7A"/>
<rect x="7.99634" y="3.90739" width="2" height="17" rx="1" transform="rotate(-2 7.99634 3.90739)" fill="#7D7C7A"/>
<rect x="12.0288" y="4.76718" width="2" height="16" rx="1" transform="rotate(-2 12.0288 4.76718)" fill="#7D7C7A"/>
<rect x="16.0264" y="4.62758" width="2" height="16" rx="1" transform="rotate(-2 16.0264 4.62758)" fill="#7D7C7A"/>
<rect x="19.989" y="3.48859" width="2" height="16" rx="1" transform="rotate(-2 19.989 3.48859)" fill="#7D7C7A"/>
<rect x="23.9866" y="3.34899" width="2" height="17" rx="1" transform="rotate(-2 23.9866 3.34899)" fill="#7D7C7A"/>
<rect x="27.9842" y="3.2094" width="2" height="17" rx="1" transform="rotate(-2 27.9842 3.2094)" fill="#7D7C7A"/>
<rect x="3.11469" y="5.29493" width="30" height="2" rx="1" transform="rotate(1 3.11469 5.29493)" fill="#C9C19F"/>
<rect x="3.11469" y="5.29494" width="30" height="2" rx="1" transform="rotate(1 3.11469 5.29494)" fill="#C9C19F"/>
<rect x="2.20941" y="10.1131" width="31" height="2" rx="1" transform="rotate(-2 2.20941 10.1131)" fill="#C9C19F"/>
<rect x="4.34778" y="14.0409" width="30" height="2" rx="1" transform="rotate(-2 4.34778 14.0409)" fill="#C9C19F"/>
<rect x="3.53348" y="17.2876" width="30" height="2" rx="1" transform="rotate(1 3.53348 17.2876)" fill="#C9C19F"/>
<rect x="6.31107" y="4.93681" width="2" height="16" rx="1" fill="#7D7C7A"/>
<rect x="10.2912" y="4.79751" width="2" height="15" rx="1" fill="#7D7C7A"/>
<rect x="14.3236" y="4.6573" width="2" height="17" rx="1" fill="#7D7C7A"/>
<rect x="18.3037" y="4.51801" width="2" height="16" rx="1" fill="#7D7C7A"/>
<rect x="22.3013" y="4.37841" width="2" height="16" rx="1" fill="#7D7C7A"/>
<rect x="26.2814" y="4.23912" width="2" height="15" rx="1" fill="#7D7C7A"/>
<rect x="30.5414" y="4.06918" width="2" height="15" rx="1" transform="rotate(2 30.5414 4.06918)" fill="#7D7C7A"/>
<rect x="3.13898" y="8.07944" width="29" height="2" rx="1" transform="rotate(-2 3.13898 8.07944)" fill="#C9C19F"/>
<rect x="3.27859" y="12.077" width="30" height="2" rx="1" transform="rotate(-2 3.27859 12.077)" fill="#C9C19F"/>
<rect x="3.41818" y="16.0746" width="30" height="2" rx="1" transform="rotate(-2 3.41818 16.0746)" fill="#C9C19F"/>
<rect x="4.13837" y="8.04455" width="2" height="2" transform="rotate(-2 4.13837 8.04455)" fill="#7D7C7A"/>
<rect x="4.27798" y="12.0421" width="2" height="2" transform="rotate(-2 4.27798 12.0421)" fill="#7D7C7A"/>
<rect x="4.41757" y="16.0397" width="2" height="2" transform="rotate(-2 4.41757 16.0397)" fill="#7D7C7A"/>
<rect x="12.1335" y="7.76535" width="2" height="2" transform="rotate(-2 12.1335 7.76535)" fill="#7D7C7A"/>
<rect x="12.2731" y="11.7629" width="2" height="2" transform="rotate(-2 12.2731 11.7629)" fill="#7D7C7A"/>
<rect x="12.4127" y="15.7605" width="2" height="2" transform="rotate(-2 12.4127 15.7605)" fill="#7D7C7A"/>
<rect x="8.13596" y="7.90495" width="2" height="2" transform="rotate(-2 8.13596 7.90495)" fill="#7D7C7A"/>
<rect x="8.27554" y="11.9025" width="2" height="2" transform="rotate(-2 8.27554 11.9025)" fill="#7D7C7A"/>
<rect x="8.41513" y="15.9001" width="2" height="2" transform="rotate(-2 8.41513 15.9001)" fill="#7D7C7A"/>
<rect x="16.1311" y="7.62576" width="2" height="2" transform="rotate(-2 16.1311 7.62576)" fill="#7D7C7A"/>
<rect x="16.2707" y="11.6233" width="2" height="2" transform="rotate(-2 16.2707 11.6233)" fill="#7D7C7A"/>
<rect x="16.4103" y="15.6209" width="2" height="2" transform="rotate(-2 16.4103 15.6209)" fill="#7D7C7A"/>
<rect x="24.1262" y="7.34656" width="2" height="2" transform="rotate(-2 24.1262 7.34656)" fill="#7D7C7A"/>
<rect x="24.2658" y="11.3441" width="2" height="2" transform="rotate(-2 24.2658 11.3441)" fill="#7D7C7A"/>
<rect x="24.4054" y="15.3417" width="2" height="2" transform="rotate(-2 24.4054 15.3417)" fill="#7D7C7A"/>
<rect x="28.1237" y="7.20696" width="2" height="2" transform="rotate(-2 28.1237 7.20696)" fill="#7D7C7A"/>
<rect x="28.2634" y="11.2045" width="2" height="2" transform="rotate(-2 28.2634 11.2045)" fill="#7D7C7A"/>
<rect x="28.403" y="15.2021" width="2" height="2" transform="rotate(-2 28.403 15.2021)" fill="#7D7C7A"/>
<rect x="20.1286" y="7.48615" width="2" height="2" transform="rotate(-2 20.1286 7.48615)" fill="#7D7C7A"/>
<rect x="20.2682" y="11.4837" width="2" height="2" transform="rotate(-2 20.2682 11.4837)" fill="#7D7C7A"/>
<rect x="20.4078" y="15.4813" width="2" height="2" transform="rotate(-2 20.4078 15.4813)" fill="#7D7C7A"/>
</svg>
